<svg width="16" height="18" viewBox="0 0 16 18" fill="none" xmlns="http://www.w3.org/2000/svg">
<path d="M10.775 8.78802C11.5129 8.211 12.0523 7.41808 12.3181 6.51984C12.5839 5.6216 12.5627 4.66282 12.2575 3.77719C11.9524 2.89156 11.3784 2.12324 10.6158 1.57936C9.85311 1.03548 8.93973 0.743164 8.003 0.743164C7.06627 0.743164 6.15289 1.03548 5.39023 1.57936C4.62757 2.12324 4.05364 2.89156 3.74848 3.77719C3.44332 4.66282 3.42214 5.6216 3.6879 6.51984C3.95366 7.41808 4.4931 8.211 5.231 8.78802C3.83688 9.34273 2.641 10.3025 1.7977 11.5436C0.954401 12.7846 0.502389 14.2498 0.5 15.7503V16.5003C0.5 16.6992 0.579018 16.8899 0.71967 17.0306C0.860322 17.1713 1.05109 17.2503 1.25 17.2503H14.75C14.9489 17.2503 15.1397 17.1713 15.2803 17.0306C15.421 16.8899 15.5 16.6992 15.5 16.5003V15.7503C15.4981 14.2505 15.047 12.7858 14.2048 11.5448C13.3626 10.3039 12.168 9.34368 10.775 8.78802ZM5 5.25027C5 4.65693 5.17595 4.07691 5.50559 3.58356C5.83524 3.09021 6.30377 2.7057 6.85195 2.47863C7.40013 2.25157 8.00333 2.19216 8.58527 2.30792C9.16721 2.42367 9.70176 2.70939 10.1213 3.12895C10.5409 3.54851 10.8266 4.08306 10.9424 4.665C11.0581 5.24694 10.9987 5.85014 10.7716 6.39832C10.5446 6.9465 10.1601 7.41504 9.66671 7.74468C9.17336 8.07432 8.59334 8.25027 8 8.25027C7.20435 8.25027 6.44129 7.9342 5.87868 7.37159C5.31607 6.80898 5 6.04592 5 5.25027ZM2 15.7503C2 14.159 2.63214 12.6328 3.75736 11.5076C4.88258 10.3824 6.4087 9.75027 8 9.75027C9.5913 9.75027 11.1174 10.3824 12.2426 11.5076C13.3679 12.6328 14 14.159 14 15.7503H2Z" fill="url(#paint0_linear_318_61934)"/>
<defs>
<linearGradient id="paint0_linear_318_61934" x1="15.5" y1="17.2503" x2="-0.196106" y2="16.5595" gradientUnits="userSpaceOnUse">
<stop stop-color="#864FF1"/>
<stop offset="1" stop-color="#49B3F7"/>
</linearGradient>
</defs>
</svg>
