<svg width="41" height="40" viewBox="0 0 41 40" fill="none" xmlns="http://www.w3.org/2000/svg">
<circle cx="20.9985" cy="20" r="20" fill="#2F89CE"/>
<path d="M10.3492 20.3741L14.9473 22.0886L16.7398 27.8557C16.8177 28.2454 17.2853 28.3233 17.5971 28.0895L20.1689 25.9853C20.4027 25.7515 20.7923 25.7515 21.1041 25.9853L25.7022 29.3364C26.0139 29.5702 26.4815 29.4144 26.5594 29.0247L29.9885 12.6587C30.0664 12.269 29.6768 11.8793 29.2871 12.0352L10.3492 19.3609C9.88163 19.5168 9.88163 20.2182 10.3492 20.3741ZM16.506 21.2313L25.5463 15.6981C25.7021 15.6201 25.858 15.8539 25.7022 15.9319L18.2985 22.868C18.0647 23.1018 17.8309 23.4135 17.8309 23.8032L17.5971 25.6736C17.5971 25.9074 17.2074 25.9853 17.1295 25.6736L16.1943 22.2445C15.9605 21.8548 16.1163 21.3872 16.506 21.2313Z" fill="white"/>
</svg>
