<svg width="41" height="40" viewBox="0 0 41 40" fill="none" xmlns="http://www.w3.org/2000/svg">
<circle cx="20.9985" cy="20" r="20" fill="#48C95F"/>
<path d="M28.9254 12.0625C26.9498 10.0937 24.3156 9 21.5351 9C15.7546 9 11.0717 13.6667 11.0717 19.4271C11.0717 21.25 11.5839 23.0729 12.4619 24.6042L10.9985 30L16.5595 28.5417C18.0961 29.3438 19.779 29.7812 21.5351 29.7812C27.3156 29.7812 31.9985 25.1146 31.9985 19.3542C31.9254 16.6563 30.901 14.0312 28.9254 12.0625ZM26.5839 23.1458C26.3644 23.7292 25.34 24.3125 24.8278 24.3854C24.3888 24.4583 23.8034 24.4583 23.218 24.3125C22.8522 24.1667 22.34 24.0208 21.7546 23.7292C19.1205 22.6354 17.4376 20.0104 17.2912 19.7917C17.1449 19.6458 16.1937 18.4062 16.1937 17.0937C16.1937 15.7812 16.8522 15.1979 17.0717 14.9062C17.2912 14.6146 17.5839 14.6146 17.8034 14.6146C17.9498 14.6146 18.1693 14.6146 18.3156 14.6146C18.4619 14.6146 18.6815 14.5417 18.901 15.0521C19.1205 15.5625 19.6327 16.875 19.7058 16.9479C19.779 17.0938 19.779 17.2396 19.7058 17.3854C19.6327 17.5312 19.5595 17.6771 19.4132 17.8229C19.2668 17.9687 19.1205 18.1875 19.0473 18.2604C18.901 18.4062 18.7546 18.5521 18.901 18.7708C19.0473 19.0625 19.5595 19.8646 20.3644 20.5937C21.3888 21.4687 22.1937 21.7604 22.4863 21.9063C22.779 22.0521 22.9254 21.9792 23.0717 21.8333C23.218 21.6875 23.7302 21.1042 23.8766 20.8125C24.0229 20.5208 24.2424 20.5938 24.4619 20.6667C24.6815 20.7396 25.9985 21.3958 26.218 21.5417C26.5107 21.6875 26.6571 21.7604 26.7302 21.8333C26.8034 22.0521 26.8034 22.5625 26.5839 23.1458Z" fill="white"/>
</svg>
